<svg xmlns="http://www.w3.org/2000/svg" xmlns:xlink="http://www.w3.org/1999/xlink" version="1.1" id="Bell" x="0em" y="0em" width="15em" height="15em" viewBox="0 0 100 100" enable-background="new 0 0 100 100" xml:space="preserve">
<path fill="#000000" d="M54.188,49.575c3.549-3.083,35.059-33.914,35.059-33.914c1.301-1.261,2.621-1.89,3.699-0.938  c1.053,0.926,0.73,2.163-0.246,3.23c0,0-35.676,37.602-38.709,41.391c-1.246,1.555-1.374,1.883-1.315,3.432  c0.055,1.55,0.884,28.354,0.884,28.354c0.07,1.605,0.19,2.094,0.812,2.793c0.665,0.654,2.983,0.957,4.562,1.277  c3.377,0.682,12.59,2.258,12.59,2.258c1.119,0.045,1.959,0.369,1.992,1.254c0.033,0.861-0.658,1.273-1.549,1.289  c0,0-14.119-0.654-21.966-0.654c-7.848,0-21.966,0.654-21.966,0.654c-0.892-0.016-1.583-0.428-1.549-1.289  c0.033-0.885,0.874-1.209,1.992-1.254c0,0,9.213-1.576,12.59-2.258c1.579-0.32,3.896-0.623,4.561-1.277  c0.622-0.699,0.744-1.188,0.813-2.793c0,0,0.83-26.804,0.885-28.354c0.059-1.549-0.069-1.877-1.317-3.432  C42.975,55.555,7.298,17.953,7.298,17.953c-0.976-1.067-1.297-2.305-0.245-3.23c1.078-0.951,2.397-0.322,3.698,0.938  c0,0,31.51,30.831,35.059,33.914c1.968,1.71,2.677,2.114,4.189,2.161C51.514,51.689,52.223,51.285,54.188,49.575z M80.755,16.814  c-1.467,0.398-10.752,2.024-16.26,2.024c-5.99,0-27.012-4.111-30.155-4.111c-5.475,0-15.157,2.087-15.157,2.087  c10.178,9.939,29.776,28.756,29.776,28.754c0.281,0.246,0.639,0.409,1.041,0.409c0.457,0,0.866-0.199,1.159-0.51  C54.295,42.637,70.587,26.742,80.755,16.814z"/>
</svg>
